<svg width="1213" height="683" xmlns="http://www.w3.org/2000/svg" xmlns:xlink="http://www.w3.org/1999/xlink" overflow="hidden"><defs><clipPath id="clip0"><path d="M0 0 1213 0 1213 683 0 683Z" fill-rule="evenodd" clip-rule="evenodd"/></clipPath></defs><g clip-path="url(#clip0)"><rect x="0" y="0" width="1213" height="682.479" fill="#FFFFFF" transform="scale(1 1.00076)"/><rect x="0" y="0" width="1213" height="682.479" transform="scale(1 1.00076)"/><path d="M0 0 172.539 0 329.266 0 808.863 0 810.122 3.16201C915.135 266.947 915.135 266.947 915.135 266.947 925.622 297.363 925.622 342.988 915.135 373.404 866.96 494.416 829.324 588.956 799.92 662.816L792.11 682.433 329.266 682.433 329.266 682.479 0 682.479Z" fill="#FFFFFF" fill-rule="evenodd" transform="scale(1 1.00076)"/><path d="M26.6561 81.9375C24.5236 81.9375 21.9172 80.5166 20.9694 78.7405 1.06624 44.2841 1.06624 44.2841 1.06624 44.2841 0 42.3896 0 39.5479 1.06624 37.6534 20.9694 3.19698 20.9694 3.19698 20.9694 3.19698 21.9172 1.42088 24.5236 0 26.6561 0 66.4625 0 66.4625 0 66.4625 0 68.4765 0 71.0828 1.42088 72.1491 3.19698 92.0523 37.6534 92.0523 37.6534 92.0523 37.6534 93.0001 39.5479 93.0001 42.3896 92.0523 44.2841 72.1491 78.7405 72.1491 78.7405 72.1491 78.7405 71.0828 80.5166 68.4765 81.9375 66.4625 81.9375L26.6561 81.9375Z" stroke="#FFFFFF" stroke-width="2.99918" stroke-linejoin="round" stroke-miterlimit="10" fill="none" fill-rule="evenodd" transform="matrix(1 0 -0 1.00076 911.5 142.5)"/><path d="M21.7834 66.9488C20.0408 66.9488 17.9108 65.7879 17.1363 64.3367 0.871338 36.1833 0.871338 36.1833 0.871338 36.1833 0 34.6354 0 32.3135 0.871338 30.7655 17.1363 2.61217 17.1363 2.61217 17.1363 2.61217 17.9108 1.16096 20.0408 0 21.7834 0 54.3134 0 54.3134 0 54.3134 0 55.9592 0 58.0892 1.16096 58.9605 2.61217 75.2255 30.7655 75.2255 30.7655 75.2255 30.7655 76 32.3135 76 34.6354 75.2255 36.1833 58.9605 64.3367 58.9605 64.3367 58.9605 64.3367 58.0892 65.7879 55.9592 66.9488 54.3134 66.9488L21.7834 66.9488Z" stroke="#FFFFFF" stroke-width="2.99918" stroke-linejoin="round" stroke-miterlimit="10" fill="none" fill-rule="evenodd" transform="matrix(1 0 -0 1.00076 991.5 107.5)"/></g></svg>